<svg width="82" height="82" viewBox="0 0 82 82" fill="none" xmlns="http://www.w3.org/2000/svg">
<g clip-path="url(#clip0_1_31)">
<path d="M41.3715 0.907043C19.0808 0.907043 0.948334 19.0413 0.948334 41.3302C0.948334 63.6192 19.0808 81.7534 41.3715 81.7534C63.6622 81.7534 81.7947 63.6192 81.7947 41.3302C81.7947 19.0413 63.6622 0.907043 41.3715 0.907043ZM41.3715 78.3849C20.9395 78.3849 4.31688 61.7623 4.31688 41.3302C4.31688 20.8982 20.9395 4.27559 41.3715 4.27559C61.8036 4.27559 78.4262 20.8982 78.4262 41.3302C78.4262 61.7623 61.8036 78.3849 41.3715 78.3849Z" fill="white"/>
<path d="M57.4419 39.914L33.8618 24.7553C33.3453 24.4182 32.6775 24.4 32.1446 24.6928C31.6017 24.9889 31.2662 25.5548 31.2662 26.1715V56.4889C31.2662 57.1057 31.6017 57.6716 32.1446 57.9677C32.3946 58.1043 32.6742 58.1733 32.9505 58.1733C33.2663 58.1733 33.5855 58.0844 33.8618 57.9052L57.4419 42.7465C57.9223 42.4373 58.215 41.9026 58.215 41.3302C58.215 40.7578 57.9223 40.2233 57.4419 39.914ZM34.6347 53.4032V29.2573L53.4154 41.3302L34.6347 53.4032Z" fill="white"/>
</g>
<defs>
<clipPath id="clip0_1_31">
<rect width="80.8464" height="80.8464" fill="white" transform="translate(0.948334 0.907043)"/>
</clipPath>
</defs>
</svg>
